<svg id="SvgjsSvg1013" xmlns="http://www.w3.org/2000/svg" version="1.1" xmlns:xlink="http://www.w3.org/1999/xlink" xmlns:svgjs="http://svgjs.com/svgjs" width="34" height="30" viewBox="0 0 34 30"><title>Shape 1</title><desc>Created with Avocode.</desc><defs id="SvgjsDefs1014"></defs><path id="SvgjsPath1015" d="M711 1559.62C711.868 1559.62 712.572 1560.34 712.572 1561.2299999999998C712.572 1562.1299999999999 711.868 1562.8499999999997 711 1562.8499999999997C710.132 1562.8499999999997 709.428 1562.1299999999997 709.428 1561.2299999999998C709.428 1560.3399999999997 710.132 1559.62 711 1559.62ZM709.923 1556.15V1547.69C709.923 1547.19 710.311 1546.8 710.788 1546.8C711.266 1546.8 711.654 1547.19 711.654 1547.69V1556.15C711.654 1556.64 711.266 1557.0400000000002 710.788 1557.0400000000002C710.311 1557.0400000000002 709.923 1556.64 709.923 1556.15ZM727.88 1564.53C727.958 1564.67 728 1564.78 728 1564.94C728 1566.67 726.644 1568 724.976 1568H697.024C695.357 1568 694 1566.67 694 1564.94C694 1564.78 694.041 1564.71 694.12 1564.5700000000002L707.826 1540.68C707.83 1540.67 707.854 1540.63 707.8580000000001 1540.6200000000001C708.6410000000001 1539.3300000000002 709.451 1538.0000000000002 711.0000000000001 1538.0000000000002C712.4850000000001 1538.0000000000002 713.3140000000001 1539.3100000000002 714.1150000000001 1540.5900000000001L714.1550000000001 1540.65ZM726.252 1565.15L712.6629999999999 1541.5400000000002C712.0629999999999 1540.5900000000001 711.5449999999998 1539.7600000000002 710.9999999999999 1539.7600000000002C710.4389999999999 1539.7600000000002 709.9979999999999 1540.4200000000003 709.3259999999999 1541.5200000000002L695.747 1565.1500000000003C695.848 1565.8000000000004 696.3919999999999 1566.2200000000003 697.024 1566.2200000000003H724.976C725.608 1566.2200000000003 726.151 1565.7900000000002 726.252 1565.1500000000003Z " fill="#f1b333" fill-opacity="1" transform="matrix(1,0,0,1,-694,-1538)"></path></svg>