<svg id="SvgjsSvg1015" xmlns="http://www.w3.org/2000/svg" version="1.1" xmlns:xlink="http://www.w3.org/1999/xlink" xmlns:svgjs="http://svgjs.com/svgjs" width="23" height="22" viewBox="0 0 23 22"><title>Shape 1 копия 3</title><desc>Created with Avocode.</desc><defs id="SvgjsDefs1016"></defs><path id="SvgjsPath1017" d="M709.692 521.673C706.124 525.222 706.113 530.984 709.679 534.53C712.789 537.6229999999999 717.606 537.995 721.117 535.7239999999999L726.4209999999999 540.9989999999999L729.0049999999999 538.4279999999999L723.7169999999999 533.1689999999999C726.1089999999999 529.6289999999999 725.7399999999999 524.7969999999999 722.6029999999998 521.6759999999998C719.0369999999998 518.1289999999998 713.2599999999999 518.1239999999998 709.6919999999999 521.6729999999998ZM720.03 531.942C717.8919999999999 534.068 714.4159999999999 534.069 712.279 531.944C710.143 529.819 710.144 526.361 712.281 524.235C714.419 522.109 717.895 522.109 720.0319999999999 524.2330000000001C722.1679999999999 526.3580000000001 722.1669999999999 529.816 720.03 531.942Z " fill="#ffffff" fill-opacity="1" transform="matrix(1,0,0,1,-707,-519)"></path></svg>