<svg id="SvgjsSvg1008" xmlns="http://www.w3.org/2000/svg" version="1.1" xmlns:xlink="http://www.w3.org/1999/xlink" xmlns:svgjs="http://svgjs.com/svgjs" width="23" height="17" viewBox="0 0 23 17"><title>Forma 1</title><desc>Created with Avocode.</desc><defs id="SvgjsDefs1009"></defs><path id="SvgjsPath1010" d="M722.582 402.348L720.564 400.402C720.2869999999999 400.135 719.9509999999999 400.002 719.5559999999999 400.002C719.16 400.002 718.824 400.135 718.5469999999999 400.402L708.8149999999999 409.80199999999996L704.453 405.58099999999996C704.1759999999999 405.31399999999996 703.8399999999999 405.181 703.444 405.181C703.049 405.181 702.712 405.31399999999996 702.435 405.58099999999996L700.4179999999999 407.527C700.1409999999998 407.794 700.0029999999999 408.118 700.0029999999999 408.5C700.0029999999999 408.881 700.141 409.206 700.4179999999999 409.473L705.7879999999999 414.652L707.8059999999999 416.597C708.083 416.864 708.419 416.998 708.8149999999999 416.998C709.2099999999999 416.998 709.5469999999999 416.864 709.823 416.597L711.841 414.652L722.582 404.294C722.859 404.027 722.997 403.703 722.997 403.32099999999997C722.997 402.94 722.8589999999999 402.61499999999995 722.582 402.34799999999996Z " fill="#ffffff" fill-opacity="1" transform="matrix(1,0,0,1,-700,-400)"></path></svg>