<svg id="SvgjsSvg1000" xmlns="http://www.w3.org/2000/svg" version="1.1" xmlns:xlink="http://www.w3.org/1999/xlink" xmlns:svgjs="http://svgjs.com/svgjs" width="23" height="39" viewBox="0 0 23 39"><title>Фигура 1056</title><desc>Created with Avocode.</desc><defs id="SvgjsDefs1001"><clipPath id="SvgjsClipPath1010"><path id="SvgjsPath1009" d="M1299 369H1300V408H1299Z " fill="#ffffff"></path></clipPath><clipPath id="SvgjsClipPath1013"><path id="SvgjsPath1012" d="M1314.5 374.01L1321.01 384.989H1307.99Z " fill="#ffffff"></path></clipPath><clipPath id="SvgjsClipPath1016"><path id="SvgjsPath1015" d="M1314.5 402.989L1307.99 392.01099999999997H1321.01Z " fill="#ffffff"></path></clipPath></defs><path id="SvgjsPath1007" d="M1299 369H1300V408H1299Z " fill="#ffffff" fill-opacity="1" transform="matrix(1,0,0,1,-1299,-369)"></path><path id="SvgjsPath1008" d="M1299 369H1300V408H1299Z " fill-opacity="0" fill="#ffffff" stroke-dashoffset="0" stroke-linejoin="miter" stroke-linecap="butt" stroke-opacity="1" stroke="#d1d1d1" stroke-miterlimit="50" stroke-width="2" clip-path="url(&quot;#SvgjsClipPath1010&quot;)" transform="matrix(1,0,0,1,-1299,-369)"></path><path id="SvgjsPath1011" d="M1314.5 374.01L1321.01 384.989H1307.99Z " fill-opacity="0" fill="#ffffff" stroke-dashoffset="0" stroke-linejoin="miter" stroke-linecap="butt" stroke-opacity="1" stroke="#f1b333" stroke-miterlimit="50" stroke-width="2" clip-path="url(&quot;#SvgjsClipPath1013&quot;)" transform="matrix(1,0,0,1,-1299,-369)"></path><path id="SvgjsPath1014" d="M1314.5 402.989L1307.99 392.01099999999997H1321.01Z " fill-opacity="0" fill="#ffffff" stroke-dashoffset="0" stroke-linejoin="miter" stroke-linecap="butt" stroke-opacity="1" stroke="#f1b333" stroke-miterlimit="50" stroke-width="2" clip-path="url(&quot;#SvgjsClipPath1016&quot;)" transform="matrix(1,0,0,1,-1299,-369)"></path></svg>